<svg version="1.2" xmlns="http://www.w3.org/2000/svg" viewBox="0 0 149 150" width="149" height="150">
	<title>6397213-ai</title>
	<style>
		.s0 { mix-blend-mode: screen;fill: #ffffff } 
	</style>
	<g id="OBJECTS">
		<g id="&lt;Group&gt;">
			<g id="&lt;Group&gt;">
			</g>
			<g id="&lt;Group&gt;">
				<path id="&lt;Path&gt;" class="s0" d="m128.8 9.6h-7.5-31.1-3.1c-9.2 0-13.7 11.1-7.3 17.6l41.7 41.7c1.1 1 2.3 1.8 3.5 2.3q0 0 0 0 0.2 0.1 0.4 0.1 0.1 0.1 0.3 0.1 0.6 0.2 1.1 0.3 0.1 0 0.3 0.1 0.6 0.1 1.3 0.1 0 0 0.1 0 1.4 0 2.8-0.3 0.1-0.1 0.2-0.1 0.5-0.1 1.1-0.4 0.1 0 0.3-0.1 0.4-0.2 0.9-0.4 0.2-0.1 0.3-0.2 0.5-0.3 0.9-0.6 0.1-0.1 0.3-0.2 0.5-0.5 1-1 0 0 0 0 0.5-0.5 0.8-1 0.2-0.2 0.3-0.4 0.2-0.4 0.5-0.8 0.1-0.2 0.2-0.5 0.2-0.4 0.3-0.8 0.1-0.3 0.2-0.5 0.1-0.5 0.2-1 0.1-0.2 0.1-0.5 0.1-0.7 0.1-1.5v-3.1-38.6c0-5.7-4.6-10.3-10.2-10.3z"/>
				<path id="&lt;Path&gt;" class="s0" d="m58.6 80.6h-7.5-31.1-3.1c-9.2 0-13.8 11.1-7.3 17.6l41.7 41.6c1.1 1.1 2.3 1.9 3.5 2.4q0 0 0 0 0.2 0 0.3 0.1 0.2 0.1 0.4 0.1 0.5 0.2 1.1 0.3 0.1 0 0.3 0 0.6 0.1 1.3 0.2 0 0 0 0 1.5 0 2.9-0.4 0.1 0 0.2 0 0.5-0.2 1-0.4 0.2 0 0.4-0.1 0.4-0.2 0.9-0.5 0.1-0.1 0.3-0.2 0.5-0.2 0.9-0.5 0.1-0.1 0.2-0.3 0.6-0.4 1.1-0.9 0 0 0 0 0.4-0.5 0.8-1 0.1-0.2 0.3-0.4 0.2-0.4 0.4-0.8 0.2-0.2 0.3-0.5 0.2-0.4 0.3-0.8 0.1-0.3 0.2-0.5 0.1-0.5 0.2-1 0.1-0.2 0.1-0.5 0.1-0.7 0.1-1.5v-3.2-38.5c0-5.7-4.6-10.3-10.2-10.3z"/>
				<path id="&lt;Path&gt;" class="s0" d="m128.8 80.6h-7.5-31.1-3.1c-9.2 0-13.7 11.1-7.3 17.6l41.7 41.6c1.1 1.1 2.3 1.9 3.5 2.4q0 0 0 0 0.2 0 0.4 0.1 0.1 0.1 0.3 0.1 0.6 0.2 1.1 0.3 0.1 0 0.3 0 0.6 0.1 1.3 0.2 0 0 0.1 0 1.4 0 2.8-0.4 0.1 0 0.2 0 0.5-0.2 1.1-0.4 0.1 0 0.3-0.1 0.4-0.2 0.9-0.5 0.2-0.1 0.3-0.2 0.5-0.2 0.9-0.5 0.1-0.1 0.3-0.3 0.5-0.4 1-0.9 0 0 0 0 0.5-0.5 0.8-1 0.2-0.2 0.3-0.4 0.2-0.4 0.5-0.8 0.1-0.2 0.2-0.5 0.2-0.4 0.3-0.8 0.1-0.3 0.2-0.5 0.1-0.5 0.2-1 0.1-0.2 0.1-0.5 0.1-0.7 0.1-1.5v-3.2-38.5c0-5.7-4.6-10.3-10.2-10.3z"/>
				<path id="&lt;Path&gt;" class="s0" d="m58.6 9.6h-7.5-31.1-3.1c-9.2 0-13.8 11.1-7.3 17.6l41.7 41.7c1.1 1 2.3 1.8 3.5 2.3q0 0 0 0 0.2 0.1 0.4 0.1 0.1 0.1 0.3 0.1 0.5 0.2 1.1 0.3 0.1 0 0.3 0.1 0.6 0.1 1.3 0.1 0 0 0 0 1.5 0 2.9-0.3 0.1-0.1 0.2-0.1 0.5-0.1 1-0.4 0.2 0 0.4-0.1 0.4-0.2 0.9-0.4 0.1-0.1 0.3-0.2 0.5-0.3 0.9-0.6 0.1-0.1 0.2-0.2 0.6-0.5 1.1-1 0 0 0 0 0.4-0.5 0.8-1 0.1-0.2 0.3-0.4 0.2-0.4 0.4-0.8 0.2-0.2 0.3-0.5 0.2-0.4 0.3-0.8 0.1-0.3 0.2-0.5 0.1-0.5 0.2-1 0.1-0.2 0.1-0.5 0.1-0.7 0.1-1.5v-3.1-38.6c0-5.7-4.6-10.3-10.2-10.3z"/>
			</g>
		</g>
	</g>
</svg>